#!OML:ASF Y:\EmotionMaleHayes\Project 1\Capture day 1\Session 1\Male1.ASF
:FULLY-SPECIFIED
:DEGREES
235
root -26.2895 16.6073 1.89404 -78.4203 84.993 -79.0924
lowerback 9.34688 3.55231 3.6001
upperback 1.33315 5.12569 0.000559868
thorax -3.52381 2.51629 -2.62818
lowerneck -25.1389 -0.475004 0.701723
upperneck 14.4905 -0.334718 -2.62272
head 8.60102 -0.412021 -1.06154
rclavicle 6.83322e-014 -1.11319e-014
rhumerus -30.9813 27.7982 -95.9339
rradius 48.5548
rwrist -6.27727
rhand -10.9554 -31.1436
rfingers 7.12502
rthumb 15.0635 -60.5755
lclavicle 6.83322e-014 -1.11319e-014
lhumerus -49.2855 -1.86808 85.3368
lradius 26.7543
lwrist -11.4165
lhand -11.1328 -23.5682
lfingers 7.12502
lthumb 14.8926 5.87651
rfemur 15.757 -8.66001 25.0672
rtibia 3.81113
rfoot -23.2724 1.24124
rtoes 13.7667
lfemur -24.4014 4.87075 -7.7719
ltibia 14.6341
lfoot -5.30418 8.89624
ltoes 6.24044
236
root -26.2185 16.59 1.89165 -77.2595 85.0614 -78.0294
lowerback 9.00719 3.61776 3.23895
upperback 1.48481 5.1657 0.080088
thorax -3.21422 2.55111 -2.31767
lowerneck -25.3187 -0.476562 0.640999
upperneck 14.4217 -0.328356 -2.56232
head 8.60703 -0.405988 -1.03071
rclavicle 3.03147e-014 -1.82882e-014
rhumerus -30.4774 28.0278 -95.5815
rradius 48.9232
rwrist -6.26029
rhand -10.8262 -31.2551
rfingers 7.12502
rthumb 15.1879 -60.6777
lclavicle 3.03147e-014 -1.82882e-014
lhumerus -49.1053 -1.36759 85.2349
lradius 26.6491
lwrist -11.7365
lhand -12.2014 -23.9608
lfingers 7.12502
lthumb 13.863 5.55722
rfemur 15.9661 -8.83411 24.8095
rtibia 3.80146
rfoot -23.4335 1.41672
rtoes 12.7463
lfemur -24.5118 4.71334 -7.88593
ltibia 13.8565
lfoot -5.32409 8.78269
ltoes 4.98938
237
root -26.1467 16.5766 1.88953 -76.9587 84.7439 -77.8539
lowerback 9.02262 3.6457 3.43058
upperback 1.34739 5.22435 0.130271
thorax -3.34974 2.57225 -2.38565
lowerneck -25.3103 -0.488347 0.777731
upperneck 14.4729 -0.367452 -2.67868
head 8.62211 -0.42994 -1.09872
rclavicle -4.2192e-014 -9.14409e-015
rhumerus -30.4475 28.0839 -95.642
rradius 49.3043
rwrist -6.28322
rhand -10.7346 -31.3081
rfingers 7.12502
rthumb 15.2761 -60.724
lclavicle -4.2192e-014 -9.14409e-015
lhumerus -49.3671 -1.26362 85.1118
lradius 26.7693
lwrist -11.6243
lhand -12.579 -24.1547
lfingers 7.12502
lthumb 13.499 5.38779
rfemur 16.1487 -9.10721 25.0069
rtibia 3.82458
rfoot -23.5806 1.61326
rtoes 11.2426
lfemur -24.6395 4.56506 -7.49512
ltibia 13.1539
lfoot -5.41379 8.5165
ltoes 3.80413
238
root -26.0764 16.565 1.88636 -75.8206 84.5231 -76.8113
lowerback 8.95126 3.66914 3.61446
upperback 1.32503 5.26929 0.105167
thorax -3.31161 2.59278 -2.51314
lowerneck -25.3582 -0.503842 0.833593
upperneck 14.39 -0.383533 -2.79887
head 8.60086 -0.447431 -1.15092
rclavicle 8.3092e-014 2.38542e-015
rhumerus -30.2032 28.3241 -95.6292
rradius 49.7623
rwrist -6.36215
rhand -10.7702 -31.2282
rfingers 7.12502
rthumb 15.2419 -60.6467
lclavicle 8.3092e-014 2.38542e-015
lhumerus -49.4182 -1.18962 85.0065
lradius 26.8604
lwrist -11.3131
lhand -12.1664 -24.0683
lfingers 7.12502
lthumb 13.8967 5.44738
rfemur 16.3155 -9.11483 25.156
rtibia 3.86247
rfoot -23.6886 1.72446
rtoes 11.0004
lfemur -24.7004 4.28398 -7.17974
ltibia 12.5119
lfoot -7.02937 8.63742
ltoes 9.99964
239
root -26.0021 16.5517 1.88065 -74.8709 84.6011 -75.9512
lowerback 8.70071 3.65816 3.49328
upperback 1.42283 5.22922 0.0410056
thorax -3.07826 2.58156 -2.48389
lowerneck -25.3517 -0.54238 0.596882
upperneck 14.0995 -0.389659 -2.63672
head 8.50031 -0.443336 -1.05531
rclavicle -1.46604e-014 1.23246e-014
rhumerus -29.8276 28.6442 -95.4895
rradius 50.2556
rwrist -6.40225
rhand -10.6142 -31.3365
rfingers 7.12502
rthumb 15.3922 -60.7435
lclavicle -1.46604e-014 1.23246e-014
lhumerus -49.2572 -0.846994 84.8289
lradius 26.7737
lwrist -11.3694
lhand -11.8575 -23.7719
lfingers 7.12502
lthumb 14.1943 5.72317
rfemur 16.481 -9.08068 24.9672
rtibia 3.84685
rfoot -23.8047 1.7043
rtoes 10.8198
lfemur -24.7674 3.85071 -7.23021
ltibia 11.9673
lfoot -5.76816 8.55565
ltoes 3.21232
240
root -25.9222 16.5387 1.8772 -74.1532 84.4934 -75.317
lowerback 8.72694 3.71539 3.48598
upperback 1.29897 5.30545 0.0302256
thorax -3.21614 2.61332 -2.50659
lowerneck -25.2283 -0.635038 0.375149
upperneck 13.9899 -0.486435 -2.40923
head 8.44166 -0.474662 -0.953641
rclavicle 1.39149e-014 -8.34896e-015
rhumerus -29.8518 28.6362 -95.5061
rradius 50.6718
rwrist -6.47201
rhand -10.5447 -31.3823
rfingers 7.12502
rthumb 15.4591 -60.7842
lclavicle 1.39149e-014 -8.34896e-015
lhumerus -49.4389 -0.657817 84.6411
lradius 26.8008
lwrist -11.7344
lhand -12.8159 -23.8084
lfingers 7.12502
lthumb 13.2706 5.74908
rfemur 16.6468 -8.8845 25.0774
rtibia 3.85264
rfoot -23.9967 1.5305
rtoes 10.5693
lfemur -24.829 3.48622 -7.02432
ltibia 11.61
lfoot -5.77107 8.77269
ltoes 3.27921
